<?xml version="1.0" encoding="UTF-8" standalone="no"?>
<!-- Created with Inkscape (http://www.inkscape.org/) -->

<svg
   width="56.401997mm"
   height="24.603298mm"
   viewBox="0 0 56.401997 24.603298"
   version="1.1"
   id="svg916"
   inkscape:version="1.2.2 (732a01da63, 2022-12-09)"
   sodipodi:docname="qodr_logo-only_outline_v.svg"
   xmlns:inkscape="http://www.inkscape.org/namespaces/inkscape"
   xmlns:sodipodi="http://sodipodi.sourceforge.net/DTD/sodipodi-0.dtd"
   xmlns="http://www.w3.org/2000/svg"
   xmlns:svg="http://www.w3.org/2000/svg">
  <sodipodi:namedview
     id="namedview918"
     pagecolor="#000000"
     bordercolor="#999999"
     borderopacity="1"
     inkscape:showpageshadow="0"
     inkscape:pageopacity="0"
     inkscape:pagecheckerboard="0"
     inkscape:deskcolor="#d1d1d1"
     inkscape:document-units="mm"
     showgrid="false"
     inkscape:zoom="0.67526655"
     inkscape:cx="339.86579"
     inkscape:cy="-71.083041"
     inkscape:window-width="1920"
     inkscape:window-height="1013"
     inkscape:window-x="-9"
     inkscape:window-y="-9"
     inkscape:window-maximized="1"
     inkscape:current-layer="layer1" />
  <defs
     id="defs913" />
  <g
     inkscape:label="Layer 1"
     inkscape:groupmode="layer"
     id="layer1"
     transform="translate(-15.291093,-167.15217)">
    <g
       id="g4973"
       transform="matrix(0.04535983,0,0,0.04535983,92.56988,168.22658)"
       style="stroke-width:0.992067;stroke-dasharray:none">
      <path
         id="path4965"
         style="color:#000000;fill:#000000;stroke-width:0.992067;stroke-dasharray:none"
         d="m -1057.0528,-23.686318 -0.5289,0.08136 c -0.1266,0.01846 -0.2396,0.02132 -0.3661,0.04068 h -8.1563 c -0.6321,0 -0.8191,0.0245 -0.5695,0.02034 l -29.2893,0.04068 c -0.3159,-0.01902 -0.7626,-0.06102 -1.4849,-0.06102 h -2.339 v -0.06102 h -11.0649 l -3.4578,0.06102 h -98.7093 l -0.3457,0.04068 c -0.4861,0.05147 -0.9596,0.119207 -1.4442,0.183059 -4.2439,0.254194 -8.2471,1.575748 -12.3463,2.481461 -12.2077,3.868217 -22.8276,11.7116068 -30.1029,22.3738319 l -0.1221,0.1627188 -132.3514,220.4635973 -0.081,0.18306 c -8.2886,15.78051 -8.2886,34.64198 0,50.42248 l 0.081,0.16272 38.0559,63.35862 8.9902,14.94979 c 1.4428,3.50067 1.1207,5.52909 0.4475,6.65113 -0.6812,1.13546 -2.2623,2.43788 -6.4477,2.76622 l -91.387,-0.32544 c -13.5179,-0.11391 -25.7272,-6.45901 -33.2963,-17.53294 l -45.785,-76.23375 c -6.1986,-11.90184 -6.1877,-26.06324 0.041,-37.95416 l -11.5327,-6.48841 -84.0036,139.10422 -0.1017,0.2034 c -7.6107,14.74326 -8.0573,32.16141 -1.2,47.2698 l 0.1627,0.34578 50.6665,84.36968 0.1017,0.16272 c 10.0391,14.77435 26.4063,24.0528 44.2392,25.07903 h 0.1831 115.4083 c 0.7743,0 1.496,-0.0343 2.217,-0.0814 l 189.3436,0.0814 c 0.079,0.009 0.1647,0.032 0.2441,0.0407 l 0.3458,0.0407 h 115.5913 c 1.317,0 2.5423,-0.12418 3.7629,-0.26442 l 23.7163,-0.0203 c 1.253,0.14946 2.5084,0.28476 3.8645,0.28476 h 42.2662 c -0.01,-5e-5 0.06,0 0.041,0 h 2.034 71.06744 l 0.18306,-0.0203 c 17.83292,-1.02623 34.20013,-10.30459 44.23916,-25.07903 l 0.1017,-0.14238 50.66656,-84.39002 0.16272,-0.34578 c 0.0579,-0.12833 0.10579,-0.25769 0.16272,-0.38646 l 6.95623,-11.59371 34.354,-57.17531 40.04916,-66.67402 0.0814,-0.16272 c 8.28865,-15.78054 8.28865,-34.66227 0,-50.44282 l -0.0814,-0.16272 -132.35139,-220.4635973 -0.1017,-0.1423789 c -9.27738,-13.6534178 -23.96508,-22.5212628 -40.21187,-24.6112148 v -0.610196 l -102.69589,0.12204 z m -156.8813,13.220901 v 0.345777 l 0.4475,-0.06102 c 0.4041,-0.05695 0.8149,-0.09663 1.2204,-0.142379 h 98.0787 l 6.997,-0.122039 c 0.078,0.01235 0.1456,0.02788 0.2237,0.04068 l 0.5288,0.08136 h 8.9902 c 0.1291,0 0.4412,0.0119 1.0577,0.04068 l 0.1627,0.02034 29.7165,-0.04068 h 0.061 c 0.5694,-0.0095 0.6537,-0.02034 0.3457,-0.02034 h 9.1937 l 0.5288,-0.08136 c 0.072,-0.01173 0.1521,-0.02934 0.2237,-0.04068 l 6.8749,0.122039 89.55635,-0.122039 v 0.122039 h 8.56307 c 13.66741,0.8182771 26.16818,7.9111975 33.88619,19.2211554 L -785.39383,228.54813 c 6.21216,11.8963 6.19378,26.05853 -0.0203,37.95415 l -41.67634,69.4199 -32.4624,54.04297 -7.4037,12.30561 -0.18306,0.4068 c -0.0426,0.0988 -0.0787,0.18632 -0.12204,0.28475 l -50.01568,83.31202 c -7.7186,11.30339 -20.22334,18.38278 -33.88619,19.20081 h -70.59966 -1.9933 -42.3476 c -1.0633,0 -2.0183,-0.0727 -2.8882,-0.2034 l -0.4882,-0.0814 -24.7332,0.0407 -0.4475,0.061 c -0.8405,0.11991 -1.7669,0.18306 -2.7866,0.18306 h -114.8184 c -0.056,-0.007 -0.1271,-0.0135 -0.1831,-0.0203 l -0.3864,-0.0407 -190.4217,-0.1017 -0.2644,0.0203 c -0.5485,0.0433 -1.091,0.0814 -1.6678,0.0814 h -114.9202 c -13.6698,-0.81295 -26.1845,-7.91293 -33.9065,-19.22115 l -49.975,-83.21032 c -5.0619,-11.33887 -4.7093,-24.33612 0.956,-35.39133 l 66.8774,-110.79115 c 0.9465,5.49754 2.6545,10.89956 5.3087,15.96678 l 0.1017,0.16272 46.2935,77.06768 0.1017,0.16272 c 10.0054,14.70682 26.4902,23.24177 44.1781,23.39082 h 0.02 l 92.0378,0.32544 0.2644,-0.0203 c 7.2198,-0.51804 13.6049,-3.60931 16.9431,-9.17327 3.3382,-5.56394 3.0462,-12.52345 0.3254,-18.87538 l -0.183,-0.42713 -3.7019,-6.16298 -43.6696,-72.71495 c -6.2163,-11.89978 -6.2168,-26.05528 0,-37.95415 L -1246.2948,8.9184572 c 6.3877,-9.32971916 16.1002,-15.85617 27.1537,-18.2448427 z m 132.148,129.341087 -62.9925,1.09835 -0.8746,0.24408 c -12.4445,3.70108 -23.148,11.75472 -30.164,22.67893 l -0.061,0.0814 -35.3303,58.82284 -11.9599,20.80766 -2.8069,6.50875 -0.061,0.18306 c -5.1532,14.2742 -4.0968,30.07565 2.929,43.52727 l 0.1017,0.16272 55.8532,92.97344 1.078,0.79326 c 4.8643,3.51839 10.2835,6.20848 16.0278,7.95288 l 0.895,0.26441 65.4129,1.13904 65.3926,-1.13904 0.895,-0.26441 c 10.2918,-3.10384 19.417,-9.20437 26.23836,-17.51261 l 0.3051,-0.36612 50.36146,-83.84085 0.1017,-0.16272 c 6.94287,-13.25779 8.08223,-28.79979 3.17302,-42.93741 l -0.0814,-0.24408 -3.03064,-7.03759 -11.95983,-20.80766 -36.40833,-60.63309 -0.12204,-0.16272 c -0.40933,-0.59178 -0.84885,-1.1742 -1.28141,-1.74922 l -0.18305,-0.26442 -0.24408,-0.24408 c -0.30489,-0.32955 -0.27864,-0.35967 -0.1017,-0.0814 l -0.44748,-0.73223 -0.32544,-0.38646 c -6.84456,-8.23906 -15.97204,-14.27465 -26.23834,-17.32955 l -0.8746,-0.24408 -63.0942,-1.09835 z m 0.1221,13.2209 60.8568,1.05767 c 7.4166,2.34936 14.032,6.72751 19.0381,12.69207 0.625,0.94136 1.2196,1.58467 1.4848,1.87126 l -0.4271,-0.50849 c 0.2964,0.39413 0.5721,0.79549 0.85423,1.20005 l 36.10323,60.10425 11.51235,20.03475 2.5018,5.77651 c 3.66769,10.64541 2.80614,22.3152 -2.4001,32.29968 l -49.52751,82.41706 c -4.978,5.96526 -11.5445,10.35845 -18.9364,12.73274 l -63.1349,1.09835 -63.1349,-1.09835 c -3.7252,-1.20339 -7.2214,-2.94151 -10.4547,-5.14598 l -54.0633,-90.00382 c -5.2728,-10.13724 -6.0757,-21.99225 -2.217,-32.74715 l 2.2984,-5.32904 11.5123,-20.03475 35.1269,-58.47706 c 5.181,-8.05855 13.0283,-14.00084 22.1501,-16.88208 z"
         sodipodi:nodetypes="cscsccscccccsccsccsscccscccccccssccsscsccscsccsccccssccsccccssccsccccccscccscssccsccscccccccccccscccccssccsscsccsscccccsccssccssscccccscccssccccssccsscccssccssccccsscsccssccccccccccccccccccccccccc" />
      <path
         style="color:#000000;fill:#000000;stroke-width:0.992067;stroke-dasharray:none"
         d="m -758.83398,-23.558594 c -8.53593,0 -16.24079,3.098418 -20.00782,9.666016 -3.76702,6.5675975 -2.58876,14.84840203 1.81055,22.4472655 l 0.0273,0.046875 82.32618,137.0195275 0.0312,0.0508 c 1.36892,2.19005 2.18034,2.99169 1.48437,1.77344 l 0.0352,0.0645 132.13281,219.9375 c 5.70791,11.13272 6.02992,24.24659 0.85742,35.64257 l 11.69336,6.14063 81.89063,-136.32422 0.0879,-0.16797 c 8.2886,-15.78052 8.2886,-34.64721 0,-50.42773 l -0.0879,-0.16797 L -598.9082,1.6777344 -599.01367,1.5234375 c -10.03894,-14.7743335 -26.39184,-24.0459045 -44.22461,-25.0722655 l -0.19141,-0.0098 z m 0,13.228516 h 114.93554 c 13.66274,0.8181322 26.16233,7.9056775 33.88086,19.2089843 L -478.14062,228.54492 c 6.215,11.89743 6.21499,26.0596 0,37.95703 l -66.05469,109.9668 c -0.94949,-5.23187 -2.59413,-10.3624 -5.08789,-15.19336 l -0.0977,-0.18945 -0.10937,-0.1836 -132.18555,-220.01953 c -1.45265,-2.54276 -2.1633,-2.8859 -1.75586,-2.22851 L -765.58789,1.9140625 c -2.92309,-5.0558102 -2.55818,-7.8666736 -1.7793,-9.2246094 0.77965,-1.3592786 2.97677,-3.0195311 8.53321,-3.0195311 z"
         id="path4967" />
      <path
         style="color:#000000;fill:#000000;stroke-width:0.992067;stroke-dasharray:none"
         d="m -633.38672,222.15625 -11.52148,6.48828 c 6.22933,11.89269 6.23843,26.05802 0.0371,37.96094 l -81.77149,136.12695 -0.11523,0.22852 c -1.02037,2.04015 -1.2607,3.04192 -1,2.58203 l -50.25,83.71875 -0.14258,0.30469 c -3.21991,6.85716 -3.65075,14.47549 0.17578,20.37304 3.82653,5.89756 11.02643,8.76367 19.14063,8.76367 h 115.40429 l 0.19141,-0.0117 c 17.83277,-1.02637 34.18567,-10.29793 44.22461,-25.07227 l 0.10547,-0.15234 50.66015,-84.37305 0.15821,-0.3457 c 6.85738,-15.1083 6.41713,-32.53795 -1.19336,-47.28125 l -0.10157,-0.19727 z m 5.50391,34.70703 66.89648,110.78906 c 5.66038,11.05175 6.00148,24.05189 0.94336,35.38672 l -49.97461,83.22656 c -7.71853,11.30331 -20.21812,18.3889 -33.88086,19.20704 h -114.93554 c -5.21639,0 -7.25141,-1.5144 -8.04297,-2.73438 -0.77897,-1.20057 -1.18337,-3.40517 0.63476,-7.375 l 49.98633,-83.27734 0.0547,-0.0977 c 1.17668,-2.11814 1.28383,-3.04826 1.22656,-2.99023 l 81.69531,-136 0.0899,-0.17188 c 2.65435,-5.06753 4.3602,-10.46501 5.30664,-15.96289 z"
         id="path4969" />
      <path
         style="color:#000000;fill:#000000;stroke-width:0.992067;stroke-dasharray:none"
         d="m -1520.5039,-23.623047 -0.1895,0.01172 c -17.8327,1.026368 -34.1876,10.297938 -44.2265,25.0722655 l -0.1035,0.1523437 -132.3575,220.4667978 -0.086,0.16601 c -8.2886,15.78049 -8.2886,34.64726 0,50.42774 l 0.088,0.16797 81.8887,136.32617 11.6953,-6.14063 c -5.1713,-11.39332 -4.8525,-24.50568 0.8515,-35.63672 l 132.1368,-219.94531 0.037,-0.0625 c -0.6959,1.21778 0.1156,0.41425 1.4843,-1.77539 l 0.029,-0.0488 82.3282,-137.0195265 0.025,-0.046875 c 4.3993,-7.59886216 5.5775,-15.8796571 1.8105,-22.4472655 -3.767,-6.567609 -11.4719,-9.667969 -20.0078,-9.667969 z m 0.4687,13.230469 h 114.9356 c 5.5564,0 7.7535,1.6602629 8.5332,3.0195311 0.7794,1.3588735 1.1466,4.1699393 -1.7832,9.2324219 -9e-4,0.00147 0,0.00244 0,0.00391 L -1480.502,138.5918 c 0.4073,-0.65706 -0.3013,-0.31358 -1.7539,2.22851 l 0.072,-0.125 -132.3672,220.32617 -0.098,0.18946 c -2.4935,4.83026 -4.1383,9.96228 -5.0879,15.19336 l -66.0567,-109.96485 c -6.2162,-11.89976 -6.2167,-26.06598 0,-37.96484 L -1553.9238,8.8242188 c 7.7179,-11.3099176 20.2213,-18.398385 33.8886,-19.2167968 z"
         id="path4971" />
    </g>
  </g>
</svg>
